<mxfile host="app.diagrams.net" modified="2020-08-07T21:53:02.654Z" agent="5.0 (Macintosh; Intel Mac OS X 10_15_5) AppleWebKit/537.36 (KHTML, like Gecko) Chrome/84.0.4147.89 Safari/537.36" etag="eem02E2DVY1q4dwHwLnI" version="13.5.8" type="github">
  <diagram name="Page-1" id="2ca16b54-16f6-2749-3443-fa8db7711227">
    <mxGraphModel dx="798" dy="1131" grid="1" gridSize="10" guides="1" tooltips="1" connect="1" arrows="1" fold="1" page="1" pageScale="1" pageWidth="1169" pageHeight="827" background="#ffffff" math="0" shadow="0">
      <root>
        <mxCell id="0" />
        <mxCell id="1" parent="0" />
        <mxCell id="0_YAfY519OwDE7ekF1or-2" value="LANDING PAGE" style="swimlane;fontStyle=1;childLayout=stackLayout;horizontal=1;startSize=26;horizontalStack=0;resizeParent=1;resizeParentMax=0;resizeLast=0;collapsible=1;marginBottom=0;rounded=0;strokeWidth=2;labelBackgroundColor=none;fillColor=#D6D6D6;" vertex="1" parent="1">
          <mxGeometry x="477" y="40" width="215" height="78" as="geometry">
            <mxRectangle x="515" y="60" width="50" height="26" as="alternateBounds" />
          </mxGeometry>
        </mxCell>
        <mxCell id="0_YAfY519OwDE7ekF1or-3" value="Redirect to login page if not logged in" style="text;strokeColor=none;fillColor=none;align=left;verticalAlign=top;spacingLeft=4;spacingRight=4;overflow=hidden;rotatable=0;points=[[0,0.5],[1,0.5]];portConstraint=eastwest;" vertex="1" parent="0_YAfY519OwDE7ekF1or-2">
          <mxGeometry y="26" width="215" height="26" as="geometry" />
        </mxCell>
        <mxCell id="0_YAfY519OwDE7ekF1or-4" value="Else display week based task list???" style="text;strokeColor=none;fillColor=none;align=left;verticalAlign=top;spacingLeft=4;spacingRight=4;overflow=hidden;rotatable=0;points=[[0,0.5],[1,0.5]];portConstraint=eastwest;" vertex="1" parent="0_YAfY519OwDE7ekF1or-2">
          <mxGeometry y="52" width="215" height="26" as="geometry" />
        </mxCell>
        <mxCell id="0_YAfY519OwDE7ekF1or-8" value="ADD/MANAGE CLIENT" style="swimlane;fontStyle=1;childLayout=stackLayout;horizontal=1;startSize=26;horizontalStack=0;resizeParent=1;resizeParentMax=0;resizeLast=0;collapsible=1;marginBottom=0;rounded=0;strokeWidth=2;labelBackgroundColor=none;fillColor=#D6D6D6;" vertex="1" parent="1">
          <mxGeometry x="70" y="300" width="215" height="70" as="geometry">
            <mxRectangle x="515" y="60" width="50" height="26" as="alternateBounds" />
          </mxGeometry>
        </mxCell>
        <mxCell id="0_YAfY519OwDE7ekF1or-9" value="Create or manage existing clients in&#xa;database" style="text;strokeColor=none;fillColor=none;align=left;verticalAlign=top;spacingLeft=4;spacingRight=4;overflow=hidden;rotatable=0;points=[[0,0.5],[1,0.5]];portConstraint=eastwest;" vertex="1" parent="0_YAfY519OwDE7ekF1or-8">
          <mxGeometry y="26" width="215" height="44" as="geometry" />
        </mxCell>
        <mxCell id="0_YAfY519OwDE7ekF1or-16" value="CREATE/MANAGE CLIENT" style="swimlane;fontStyle=1;childLayout=stackLayout;horizontal=1;startSize=26;horizontalStack=0;resizeParent=1;resizeParentMax=0;resizeLast=0;collapsible=1;marginBottom=0;rounded=0;strokeWidth=2;labelBackgroundColor=none;fillColor=#D6D6D6;" vertex="1" parent="1">
          <mxGeometry x="900" y="300" width="215" height="70" as="geometry">
            <mxRectangle x="515" y="60" width="50" height="26" as="alternateBounds" />
          </mxGeometry>
        </mxCell>
        <mxCell id="0_YAfY519OwDE7ekF1or-17" value="Create or manage existing clients in&#xa;database" style="text;strokeColor=none;fillColor=none;align=left;verticalAlign=top;spacingLeft=4;spacingRight=4;overflow=hidden;rotatable=0;points=[[0,0.5],[1,0.5]];portConstraint=eastwest;" vertex="1" parent="0_YAfY519OwDE7ekF1or-16">
          <mxGeometry y="26" width="215" height="44" as="geometry" />
        </mxCell>
        <mxCell id="0_YAfY519OwDE7ekF1or-14" value="CREATE/MANAGE CLIENT" style="swimlane;fontStyle=1;childLayout=stackLayout;horizontal=1;startSize=26;horizontalStack=0;resizeParent=1;resizeParentMax=0;resizeLast=0;collapsible=1;marginBottom=0;rounded=0;strokeWidth=2;labelBackgroundColor=none;fillColor=#D6D6D6;" vertex="1" parent="1">
          <mxGeometry x="620" y="300" width="215" height="70" as="geometry">
            <mxRectangle x="515" y="60" width="50" height="26" as="alternateBounds" />
          </mxGeometry>
        </mxCell>
        <mxCell id="0_YAfY519OwDE7ekF1or-15" value="Create or manage existing clients in&#xa;database" style="text;strokeColor=none;fillColor=none;align=left;verticalAlign=top;spacingLeft=4;spacingRight=4;overflow=hidden;rotatable=0;points=[[0,0.5],[1,0.5]];portConstraint=eastwest;" vertex="1" parent="0_YAfY519OwDE7ekF1or-14">
          <mxGeometry y="26" width="215" height="44" as="geometry" />
        </mxCell>
        <mxCell id="0_YAfY519OwDE7ekF1or-12" value="CREATE/MANAGE CLIENT" style="swimlane;fontStyle=1;childLayout=stackLayout;horizontal=1;startSize=26;horizontalStack=0;resizeParent=1;resizeParentMax=0;resizeLast=0;collapsible=1;marginBottom=0;rounded=0;strokeWidth=2;labelBackgroundColor=none;fillColor=#D6D6D6;" vertex="1" parent="1">
          <mxGeometry x="350" y="300" width="215" height="70" as="geometry">
            <mxRectangle x="515" y="60" width="50" height="26" as="alternateBounds" />
          </mxGeometry>
        </mxCell>
        <mxCell id="0_YAfY519OwDE7ekF1or-13" value="Create or manage existing clients in&#xa;database" style="text;strokeColor=none;fillColor=none;align=left;verticalAlign=top;spacingLeft=4;spacingRight=4;overflow=hidden;rotatable=0;points=[[0,0.5],[1,0.5]];portConstraint=eastwest;" vertex="1" parent="0_YAfY519OwDE7ekF1or-12">
          <mxGeometry y="26" width="215" height="44" as="geometry" />
        </mxCell>
      </root>
    </mxGraphModel>
  </diagram>
</mxfile>
